<?xml version="1.0" encoding="UTF-8"?>
<svg xmlns="http://www.w3.org/2000/svg" viewBox="0 0 48 48">
  <defs>
    <style>
      .cls-1 {
        fill: #c4c2ca;
        stroke-width: 0px;
      }
    </style>
  </defs>
  <g id="Layer_1" data-name="Layer 1" shape-rendering="crispEdges">
    <polygon class="cls-1" points="35.08 1.85 35.08 0 33.23 0 31.38 0 29.54 0 27.69 0 25.85 0 24 0 22.15 0 22.15 1.85 20.31 1.85 20.31 3.69 18.46 3.69 18.46 5.54 16.62 5.54 16.62 7.38 16.62 9.23 16.62 11.08 16.62 12.92 16.62 14.77 16.62 16.62 16.62 18.46 16.62 20.31 14.77 20.31 12.92 20.31 11.08 20.31 11.08 22.15 11.08 24 11.08 25.85 11.08 27.69 11.08 29.54 12.92 29.54 14.77 29.54 16.62 29.54 16.62 31.38 16.62 33.23 16.62 35.08 16.62 36.92 16.62 38.77 16.62 40.62 16.62 42.46 16.62 44.31 16.62 46.15 16.62 48 18.46 48 20.31 48 22.15 48 24 48 25.85 48 27.69 48 27.69 46.15 27.69 44.31 27.69 42.46 27.69 40.62 27.69 38.77 27.69 36.92 27.69 35.08 27.69 33.23 27.69 31.38 27.69 29.54 29.54 29.54 31.38 29.54 33.23 29.54 35.08 29.54 35.08 27.69 36.92 27.69 36.92 25.85 36.92 24 36.92 22.15 36.92 20.31 35.08 20.31 33.23 20.31 31.38 20.31 29.54 20.31 27.69 20.31 27.69 18.46 27.69 16.62 27.69 14.77 27.69 12.92 29.54 12.92 29.54 11.08 31.38 11.08 33.23 11.08 35.08 11.08 36.92 11.08 36.92 9.23 36.92 7.38 36.92 5.54 36.92 3.69 36.92 1.85 35.08 1.85"/>
  </g>
</svg>