<?xml version="1.0" encoding="UTF-8"?>
<svg xmlns="http://www.w3.org/2000/svg" viewBox="0 0 48 48">
  <defs>
    <style>
      .cls-1 {
        fill: #c4c2ca;
        stroke-width: 0px;
      }
    </style>
  </defs>
  <g id="Layer_1" data-name="Layer 1" shape-rendering="crispEdges">
    <g>
      <polygon class="cls-1" points="36.92 9.23 35.08 9.23 33.23 9.23 33.23 11.08 31.38 11.08 31.38 12.92 31.38 14.77 33.23 14.77 33.23 16.62 35.08 16.62 36.92 16.62 36.92 14.77 38.77 14.77 38.77 12.92 38.77 11.08 36.92 11.08 36.92 9.23"/>
      <path class="cls-1" d="m46.15,9.23v-3.69h-1.85v-1.85h-1.85v-1.85h-3.69V0H9.23v1.85h-3.69v1.85h-1.85v1.85h-1.85v3.69H0v29.54h1.85v3.69h1.85v1.85h1.85v1.85h3.69v1.85h29.54v-1.85h3.69v-1.85h1.85v-1.85h1.85v-3.69h1.85V9.23h-1.85Zm-3.69,29.54h-1.85v1.85h-1.85v1.85H9.23v-1.85h-1.85v-1.85h-1.85V9.23h1.85v-1.85h1.85v-1.85h29.54v1.85h1.85v1.85h1.85v29.54Z"/>
      <path class="cls-1" d="m31.38,16.62h-1.85v-1.85h-11.08v1.85h-1.85v1.85h-1.85v11.08h1.85v1.85h1.85v1.85h11.08v-1.85h1.85v-1.85h1.85v-11.08h-1.85v-1.85Zm-1.85,3.69v7.38h-1.85v1.85h-7.38v-1.85h-1.85v-7.38h1.85v-1.85h7.38v1.85h1.85Z"/>
    </g>
  </g>
</svg>