<svg xmlns="http://www.w3.org/2000/svg" viewBox="0 -0.5 96 50" shape-rendering="crispEdges">
<metadata>Made with Pixels to Svg https://codepen.io/shshaw/pen/XbxvNj</metadata>
<path stroke="#122020" d="M53 6h6M63 6h14M13 7h19M53 7h1M58 7h2M62 7h2M68 7h2M76 7h10M11 8h3M31 8h3M53 8h1M59 8h4M68 8h2M77 8h2M85 8h1M10 9h2M33 9h2M39 9h12M53 9h1M60 9h2M68 9h6M77 9h1M85 9h1M9 10h2M34 10h2M38 10h2M50 10h2M53 10h1M68 10h6M77 10h1M81 10h5M9 11h1M35 11h1M37 11h2M51 11h3M68 11h2M76 11h2M81 11h4M8 12h2M35 12h3M52 12h2M68 12h2M76 12h2M84 12h2M8 13h1M36 13h2M43 13h4M52 13h2M57 13h2M63 13h2M68 13h6M77 13h2M85 13h1M8 14h1M36 14h2M42 14h6M52 14h2M57 14h3M62 14h3M68 14h6M77 14h5M85 14h1M8 15h1M36 15h2M42 15h6M52 15h2M57 15h8M68 15h2M77 15h5M85 15h1M8 16h1M36 16h2M42 16h6M52 16h2M57 16h8M68 16h2M76 16h2M85 16h1M8 17h1M18 17h10M36 17h2M42 17h6M52 17h2M57 17h8M68 17h10M84 17h2M8 18h1M17 18h12M36 18h2M42 18h6M52 18h2M57 18h8M68 18h17M8 19h1M17 19h12M36 19h2M42 19h6M52 19h2M57 19h8M68 19h18M8 20h1M17 20h4M27 20h2M36 20h2M43 20h4M52 20h2M57 20h8M68 20h3M85 20h2M8 21h1M17 21h4M27 21h11M52 21h18M86 21h2M8 22h1M17 22h6M27 22h12M51 22h19M87 22h1M8 23h1M17 23h5M27 23h13M50 23h4M58 23h6M68 23h2M87 23h1M8 24h1M17 24h4M24 24h1M27 24h27M59 24h4M68 24h2M75 24h7M87 24h1M8 25h1M17 25h3M23 25h2M27 25h27M60 25h2M68 25h2M74 25h9M87 25h1M8 26h1M17 26h3M22 26h7M36 26h4M50 26h4M68 26h2M74 26h9M87 26h1M8 27h1M17 27h12M36 27h3M51 27h3M68 27h2M74 27h9M87 27h1M8 28h1M17 28h12M36 28h2M52 28h2M68 28h2M74 28h9M87 28h1M8 29h1M18 29h10M36 29h2M43 29h4M52 29h2M57 29h2M63 29h2M68 29h2M75 29h7M87 29h1M8 30h1M36 30h2M42 30h6M52 30h2M57 30h3M62 30h3M68 30h2M87 30h1M8 31h1M36 31h2M42 31h6M52 31h2M57 31h8M68 31h2M87 31h1M8 32h1M87 32h1M8 33h1M87 33h1M8 34h1M87 34h1M8 35h1M87 35h1M8 36h1M86 36h1M8 37h1M85 37h1M9 38h1M76 38h9M9 39h1M59 39h4M76 39h1M10 40h1M34 40h2M58 40h1M63 40h1M76 40h1M11 41h2M33 41h1M35 41h1M44 41h2M54 41h4M64 41h4M76 41h1M13 42h20M36 42h1M43 42h1M46 42h1M53 42h1M68 42h1M75 42h1M37 43h6M47 43h6M68 43h1M75 43h1M69 44h6" />
<path stroke="#ffffff" d="M54 7h4M64 7h4M15 8h15M54 8h5M63 8h5M13 9h19M54 9h6M62 9h6M11 10h23M40 10h10M54 10h14M11 11h23M39 11h12M54 11h14M10 12h25M38 12h5M47 12h5M54 12h3M59 12h4M65 12h3M10 13h25M38 13h4M48 13h4M54 13h3M60 13h2M65 13h3M9 14h27M38 14h4M48 14h4M54 14h3M65 14h3M9 15h27M38 15h4M48 15h4M54 15h3M65 15h3M9 16h9M28 16h8M38 16h4M48 16h4M54 16h3M65 16h3M9 17h8M29 17h7M38 17h4M48 17h4M54 17h3M65 17h3M9 18h8M29 18h7M38 18h4M48 18h4M54 18h3M65 18h3M9 19h8M29 19h7M38 19h4M48 19h4M54 19h3M65 19h3M9 20h8M38 20h5M47 20h5M71 20h14M9 21h8M39 21h12M70 21h16M9 22h8M40 22h10M70 22h17M9 23h8M54 23h4M64 23h4M70 23h5M82 23h5M9 24h8M54 24h5M63 24h5M70 24h4M83 24h4M9 25h8M54 25h6M62 25h6M70 25h4M83 25h4M9 26h8M29 26h7M41 26h9M54 26h14M70 26h4M83 26h4M9 27h8M29 27h7M39 27h12M54 27h14M70 27h4M83 27h4M9 28h8M29 28h7M38 28h5M47 28h5M54 28h3M59 28h4M65 28h3M70 28h4M83 28h4M9 29h9M28 29h8M38 29h4M48 29h4M54 29h3M60 29h2M65 29h3M70 29h5M82 29h5M9 30h27M38 30h4M48 30h4M54 30h3M65 30h3M70 30h17M9 31h27M38 31h4M48 31h4M54 31h3M65 31h3M70 31h16M9 32h27M38 32h4M48 32h4M54 32h3M65 32h3M70 32h16M10 33h25M38 33h14M54 33h3M65 33h3M70 33h4M10 34h25M38 34h14M54 34h3M65 34h3M70 34h4M11 35h23M38 35h14M54 35h3M65 35h3M70 35h4M11 36h23M38 36h4M48 36h4M70 36h4M13 37h19M38 37h4M48 37h4M70 37h4M38 38h4M48 38h4M70 38h4M70 39h4M70 40h4" />
<path stroke="#ffd541" d="M70 7h5M71 8h5M80 8h5M74 9h3M79 9h5M74 10h3M78 10h3M70 11h6M78 11h3M71 12h5M79 12h4M74 13h3M80 13h4M74 14h3M82 14h3M70 15h6M82 15h3M71 16h4M78 16h6M79 17h4M21 20h6M23 21h4M23 22h4M22 23h5M21 24h2M25 24h2M20 25h2" />
<path stroke="#f9a31b" d="M75 7h1M70 8h1M76 8h1M79 8h1M78 9h1M84 9h1M70 12h1M78 12h1M83 12h1M79 13h1M84 13h1M76 15h1M70 16h1M75 16h1M84 16h1M78 17h1M83 17h1M21 21h2M23 24h1M22 25h1" />
<path stroke="#b3b9d1" d="M14 8h1M30 8h1M12 9h1M32 9h1M10 11h1M34 11h1M43 12h4M58 12h1M63 12h1M9 13h1M35 13h1M59 13h1M62 13h1M60 14h2M18 16h10M29 20h6M55 20h2M65 20h2M39 22h1M50 22h1M41 23h8M75 23h7M74 24h1M82 24h1M40 26h1M43 28h4M58 28h1M63 28h1M59 29h1M62 29h1M60 30h2M74 33h10M55 36h2M65 36h2M15 38h15M39 39h3M48 39h3M71 41h2" />
<path stroke="#8b93af" d="M57 12h1M64 12h1M17 17h1M28 17h1M35 20h1M54 20h1M67 20h1M38 21h1M51 21h1M40 23h1M49 23h1M57 28h1M64 28h1M86 31h1M9 33h1M35 33h1M84 33h1M10 35h1M34 35h1M54 36h1M67 36h1M12 37h1M32 37h1M14 38h1M30 38h1M38 39h1M51 39h1M70 41h1M73 41h1" />
<path stroke="#6d758d" d="M42 13h1M47 13h1M42 29h1M47 29h1" />
<path stroke="#fa6a0a" d="M25 25h2M20 26h2" />
<path stroke="#143464" d="M36 32h2M42 32h6M52 32h2M57 32h8M68 32h2M86 32h1M36 33h2M52 33h2M57 33h8M68 33h2M85 33h2M9 34h1M35 34h3M52 34h2M57 34h8M68 34h2M74 34h13M9 35h1M35 35h3M52 35h2M57 35h8M68 35h2M74 35h12M9 36h2M34 36h4M42 36h6M52 36h2M57 36h8M68 36h2M74 36h11M10 37h2M33 37h5M42 37h6M52 37h18M74 37h2M11 38h3M31 38h7M42 38h6M52 38h7M63 38h7M74 38h2M11 39h23M36 39h2M42 39h6M52 39h6M64 39h6M74 39h2M13 40h20M36 40h18M68 40h2M74 40h2M37 41h6M47 41h6M68 41h2M74 41h2M69 42h6" />
<path stroke="#285cc4" d="M86 35h1M85 36h1M9 37h1M76 37h9M10 38h1M59 38h4M10 39h1M34 39h2M58 39h1M63 39h1M11 40h2M33 40h1M54 40h4M64 40h4M13 41h20M36 41h1M43 41h1M46 41h1M53 41h1M37 42h6M47 42h6M69 43h6" />
</svg>