<?xml version="1.0" encoding="UTF-8"?>
<svg xmlns="http://www.w3.org/2000/svg" viewBox="0 0 48 48">
  <defs>
    <style>
      .cls-1 {
        fill: #c4c2ca;
        stroke-width: 0px;
      }
    </style>
  </defs>
  <g id="Layer_1" data-name="Layer 1" shape-rendering="crispEdges">
    <polygon class="cls-1" points="43.2 9.6 41.28 9.6 41.28 7.68 39.36 7.68 39.36 5.76 37.44 5.76 37.44 3.84 35.52 3.84 35.52 1.92 35.52 0 33.6 0 31.68 0 29.76 0 27.84 0 25.92 0 24 0 22.08 0 22.08 1.92 22.08 3.84 22.08 5.76 22.08 7.68 22.08 9.6 22.08 11.52 22.08 13.44 22.08 15.36 22.08 17.28 22.08 19.2 22.08 21.12 22.08 23.04 22.08 24.96 22.08 26.88 22.08 28.8 22.08 30.72 22.08 32.64 22.08 34.56 22.08 36.48 20.16 36.48 20.16 38.4 18.24 38.4 16.32 38.4 14.4 38.4 14.4 36.48 12.48 36.48 12.48 34.56 12.48 32.64 12.48 30.72 14.4 30.72 14.4 28.8 16.32 28.8 18.24 28.8 20.16 28.8 20.16 26.88 20.16 24.96 20.16 23.04 20.16 21.12 18.24 21.12 16.32 21.12 14.4 21.12 12.48 21.12 10.56 21.12 10.56 23.04 8.64 23.04 6.72 23.04 6.72 24.96 4.8 24.96 4.8 26.88 4.8 28.8 2.88 28.8 2.88 30.72 2.88 32.64 2.88 34.56 2.88 36.48 2.88 38.4 4.8 38.4 4.8 40.32 4.8 42.24 6.72 42.24 6.72 44.16 8.64 44.16 8.64 46.08 10.56 46.08 12.48 46.08 12.48 48 14.4 48 16.32 48 18.24 48 20.16 48 22.08 48 22.08 46.08 24 46.08 25.92 46.08 25.92 44.16 27.84 44.16 27.84 42.24 29.76 42.24 29.76 40.32 29.76 38.4 31.68 38.4 31.68 36.48 31.68 34.56 31.68 32.64 31.68 30.72 31.68 28.8 31.68 26.88 31.68 24.96 31.68 23.04 31.68 21.12 31.68 19.2 31.68 17.28 31.68 15.36 31.68 13.44 33.6 13.44 33.6 15.36 35.52 15.36 35.52 17.28 37.44 17.28 37.44 19.2 39.36 19.2 41.28 19.2 43.2 19.2 45.12 19.2 45.12 17.28 45.12 15.36 45.12 13.44 45.12 11.52 45.12 9.6 43.2 9.6"/>
  </g>
</svg>